<?xml version="1.0" standalone="no"?>
<!DOCTYPE svg PUBLIC "-//W3C//DTD SVG 20010904//EN"
 "http://www.w3.org/TR/2001/REC-SVG-20010904/DTD/svg10.dtd">
<svg version="1.0" xmlns="http://www.w3.org/2000/svg"
 width="1024.000000pt" height="1536.000000pt" viewBox="0 0 1024.000000 1536.000000"
 preserveAspectRatio="xMidYMid meet">

<g transform="translate(0.000000,1536.000000) scale(0.100000,-0.100000)"
fill="#000000" stroke="none">
<path d="M0 7680 l0 -7680 5120 0 5120 0 0 7680 0 7680 -5120 0 -5120 0 0
-7680z m3816 4734 c18 -14 18 -14 -6 -3 -31 14 -36 19 -24 19 6 0 19 -7 30
-16z m174 -74 c69 -28 139 -58 156 -66 20 -10 46 -14 69 -11 55 7 52 14 -10
22 -30 3 -55 11 -55 17 0 6 8 7 18 3 9 -4 45 -12 80 -17 34 -6 62 -14 62 -18
0 -4 -30 -11 -67 -17 -59 -9 -72 -8 -98 7 -16 10 -77 37 -134 59 -57 23 -120
51 -140 62 -45 25 -35 22 119 -41z m-810 -115 c17 -9 30 -18 30 -21 0 -4 -59
23 -69 32 -10 9 13 3 39 -11z m70 -35 c8 -5 11 -10 5 -10 -5 0 -17 5 -25 10
-8 5 -10 10 -5 10 6 0 17 -5 25 -10z m110 -46 c23 -9 39 -18 37 -20 -2 -3 -24
4 -48 15 -54 24 -45 27 11 5z m140 6 c8 -5 11 -10 5 -10 -5 0 -17 5 -25 10 -8
5 -10 10 -5 10 6 0 17 -5 25 -10z m97 -34 l41 -10 -69 -22 -70 -22 -44 25
c-56 31 -59 41 -4 12 37 -18 46 -19 91 -9 l50 12 -38 19 c-22 11 -30 16 -19
13 11 -4 39 -12 62 -18z m-1300 -622 c-3 -3 -12 -4 -19 -1 -8 3 -5 6 6 6 11 1
17 -2 13 -5z m4743 -1359 c-14 -8 -29 -14 -35 -14 -5 0 1 6 15 14 14 8 30 14
35 14 6 0 -1 -6 -15 -14z m5 -25 c-3 -5 -12 -10 -18 -10 -7 0 -6 4 3 10 19 12
23 12 15 0z m-126 -24 c-2 -2 -15 -9 -29 -15 -24 -11 -24 -11 -6 3 16 13 49
24 35 12z m21 -20 c0 -2 -7 -7 -16 -10 -8 -3 -12 -2 -9 4 6 10 25 14 25 6z
m-41 -20 c-12 -10 -103 -58 -97 -51 12 12 82 54 92 55 5 0 7 -2 5 -4z m-80
-10 c-17 -17 -161 -105 -150 -92 8 9 44 35 80 56 60 36 82 47 70 36z m-44 -62
c-28 -21 -55 -36 -55 -29 0 6 62 45 70 45 3 -1 -4 -8 -15 -16z m-65 -38 c0 -4
-116 -96 -144 -114 -30 -19 41 44 94 84 46 34 50 37 50 30z m-65 -14 c-6 -5
-44 -36 -85 -69 -73 -59 -210 -196 -298 -298 -43 -50 -43 -50 -11 -5 37 50
126 146 209 226 58 55 179 154 188 154 3 0 2 -4 -3 -8z m-195 -209 c-51 -48
-120 -122 -153 -163 -68 -85 -84 -102 -72 -80 10 18 58 81 99 130 43 50 209
210 214 205 2 -2 -37 -43 -88 -92z m-230 -217 c0 -2 -8 -10 -17 -17 -16 -13
-17 -12 -4 4 13 16 21 21 21 13z m-30 -40 c0 -2 -8 -10 -17 -17 -16 -13 -17
-12 -4 4 13 16 21 21 21 13z m20 -13 c-1 -5 -12 -21 -27 -38 -26 -30 -26 -30
11 33 8 13 16 16 16 5z m890 -182 c14 -4 -20 -6 -75 -4 -55 3 -104 6 -110 8
-20 7 161 3 185 -4z m598 2 c-15 -2 -42 -2 -60 0 -18 2 -6 4 27 4 33 0 48 -2
33 -4z m-843 -17 c-125 -32 -230 -104 -320 -221 -70 -93 -127 -238 -144 -370
-6 -50 -9 -59 -10 -30 -2 94 56 272 122 371 49 75 130 156 192 193 65 39 148
71 185 70 15 0 4 -6 -25 -13z m305 -6 c8 -5 11 -10 5 -10 -5 0 -17 5 -25 10
-8 5 -10 10 -5 10 6 0 17 -5 25 -10z m49 -19 c7 -5 12 -13 10 -18 -2 -5 -12
-1 -21 9 -19 19 -13 24 11 9z m676 -1 c3 -6 -1 -7 -9 -4 -18 7 -21 14 -7 14 6
0 13 -4 16 -10z m-426 -2 c-2 -2 -29 -25 -59 -53 -30 -27 -47 -41 -39 -31 21
29 83 85 93 86 5 0 7 -1 5 -2z m-265 -102 c-10 -31 -19 -54 -22 -52 -2 2 4 29
14 60 10 31 19 54 22 52 2 -2 -4 -29 -14 -60z m139 -41 c-3 -9 -8 -14 -10 -11
-3 3 -2 9 2 15 9 16 15 13 8 -4z m370 -12 c-13 -2 -33 -2 -45 0 -13 2 -3 4 22
4 25 0 35 -2 23 -4z m-750 -10 c-7 -2 -19 -2 -25 0 -7 3 -2 5 12 5 14 0 19 -2
13 -5z m-128 -42 c-92 -53 -142 -116 -187 -236 -10 -27 -16 -36 -13 -20 18 95
109 220 191 264 59 31 66 25 9 -8z m305 19 c8 -5 11 -10 5 -10 -5 0 -17 5 -25
10 -8 5 -10 10 -5 10 6 0 17 -5 25 -10z m420 7 c0 -2 -10 -12 -22 -23 l-23
-19 19 23 c18 21 26 27 26 19z m-253 -159 c-2 -18 -4 -4 -4 32 0 36 2 50 4 33
2 -18 2 -48 0 -65z m190 20 c-2 -13 -4 -3 -4 22 0 25 2 35 4 23 2 -13 2 -33 0
-45z m44 -75 c13 -16 12 -17 -3 -4 -10 7 -18 15 -18 17 0 8 8 3 21 -13z m175
-99 c18 -14 18 -14 -6 -3 -31 14 -36 19 -24 19 6 0 19 -7 30 -16z m-345 -11
c13 -16 12 -17 -3 -4 -10 7 -18 15 -18 17 0 8 8 3 21 -13z m-752 -54 c-11 -49
-8 -154 6 -219 l6 -25 -11 24 c-18 41 -23 162 -10 224 6 32 14 57 16 54 2 -2
-1 -28 -7 -58z m1196 1 c10 -11 16 -20 13 -20 -3 0 -13 9 -23 20 -10 11 -16
20 -13 20 3 0 13 -9 23 -20z m-607 3 c-16 -2 -40 -2 -55 0 -16 2 -3 4 27 4 30
0 43 -2 28 -4z m-235 -10 l-83 -4 0 -94 0 -94 58 -3 57 -3 -63 -5 -62 -5 0
108 0 107 88 -2 87 -2 -82 -3z m527 -49 c0 -7 -58 25 -65 36 -3 5 10 1 29 -11
20 -12 36 -23 36 -25z m380 -24 c6 -11 8 -20 6 -20 -3 0 -10 9 -16 20 -6 11
-8 20 -6 20 3 0 10 -9 16 -20z m-1493 -42 c-3 -8 -6 -5 -6 6 -1 11 2 17 5 13
3 -3 4 -12 1 -19z m1228 12 c3 -6 -1 -7 -9 -4 -18 7 -21 14 -7 14 6 0 13 -4
16 -10z m292 -62 c-3 -8 -6 -5 -6 6 -1 11 2 17 5 13 3 -3 4 -12 1 -19z m-1504
-63 c3 -43 2 -60 -3 -45 -8 24 -14 127 -6 119 2 -2 6 -35 9 -74z m257 -80 c0
-5 -5 -3 -10 5 -5 8 -10 20 -10 25 0 6 5 3 10 -5 5 -8 10 -19 10 -25z m-194
-118 c9 -16 14 -31 11 -34 -7 -6 -55 97 -62 134 -3 16 3 6 14 -22 11 -27 28
-63 37 -78z m246 38 c9 -17 9 -18 -3 -8 -8 6 -22 26 -32 45 l-19 33 21 -25
c12 -14 27 -34 33 -45z m625 -57 c-3 -8 -6 -5 -6 6 -1 11 2 17 5 13 3 -3 4
-12 1 -19z m514 -1 c-10 -9 -11 -8 -5 6 3 10 9 15 12 12 3 -3 0 -11 -7 -18z
m-323 6 c-16 -2 -40 -2 -55 0 -16 2 -3 4 27 4 30 0 43 -2 28 -4z m-1023 -59
c9 -15 12 -23 6 -20 -11 7 -35 46 -28 46 3 0 12 -12 22 -26z m362 20 c-3 -3
-12 -4 -19 -1 -8 3 -5 6 6 6 11 1 17 -2 13 -5z m100 0 c-3 -3 -12 -4 -19 -1
-8 3 -5 6 6 6 11 1 17 -2 13 -5z m250 -51 c-3 -10 -5 -4 -5 12 0 17 2 24 5 18
2 -7 2 -21 0 -30z m573 3 c0 -2 -8 -10 -17 -17 -16 -13 -17 -12 -4 4 13 16 21
21 21 13z m-1240 -26 c6 -11 8 -20 6 -20 -3 0 -10 9 -16 20 -6 11 -8 20 -6 20
3 0 10 -9 16 -20z m767 -12 c-3 -7 -5 -2 -5 12 0 14 2 19 5 13 2 -7 2 -19 0
-25z m-137 -38 c-8 -5 -19 -10 -25 -10 -5 0 -3 5 5 10 8 5 20 10 25 10 6 0 3
-5 -5 -10z m-480 -50 c8 -5 11 -10 5 -10 -5 0 -17 5 -25 10 -8 5 -10 10 -5 10
6 0 17 -5 25 -10z m317 -16 c-3 -3 -12 -4 -19 -1 -8 3 -5 6 6 6 11 1 17 -2 13
-5z m-44 -11 c-7 -2 -19 -2 -25 0 -7 3 -2 5 12 5 14 0 19 -2 13 -5z m-90 -10
c-13 -2 -33 -2 -45 0 -13 2 -3 4 22 4 25 0 35 -2 23 -4z m-2769 -110 c34 -26
102 -81 152 -123 50 -41 143 -118 207 -170 78 -62 113 -97 104 -101 -14 -8
-522 -129 -541 -129 -9 0 -481 383 -530 430 -5 5 11 14 35 20 106 29 476 118
493 119 11 1 47 -20 80 -46z m-1022 -436 c128 -106 248 -203 265 -217 18 -13
32 -25 30 -26 -1 -1 -117 -30 -257 -64 -140 -33 -262 -63 -271 -66 -11 -3 -76
45 -185 137 -93 78 -210 176 -260 218 -50 42 -89 78 -87 81 7 7 484 128 510
129 15 1 100 -63 255 -192z m2741 -540 l49 -2 -96 -120 c-52 -66 -142 -178
-198 -250 l-103 -130 -304 -3 -303 -2 53 67 c30 38 122 154 205 258 l151 190
249 -3 c137 -1 271 -3 297 -5z m2598 -38 c-22 -27 -115 -139 -207 -248 l-167
-198 -281 -5 c-155 -3 -283 -4 -285 -2 -2 1 43 58 99 126 56 68 149 180 207
251 l104 127 285 0 286 0 -41 -51z m-3840 24 c-6 -10 -93 -124 -193 -253
l-184 -235 -303 -3 -303 -2 29 38 c15 21 100 136 188 255 l160 216 308 1 c290
0 307 -1 298 -17z m-1233 -71 c-35 -42 -126 -157 -202 -255 l-139 -177 -144 0
-143 0 0 155 0 156 65 99 64 100 281 0 281 0 -63 -78z m3221 -12 c96 -37 308
-83 428 -93 l32 -2 -125 -152 -125 -153 -267 -1 c-147 -1 -284 -2 -304 -4 -21
-2 -38 0 -38 3 0 18 222 272 232 266 7 -4 8 -3 4 5 -5 7 15 40 49 81 32 39 59
70 61 70 2 0 26 -9 53 -20z m-1128 -791 c46 -11 114 -70 141 -123 17 -31 23
-64 26 -138 l4 -98 -101 0 -101 0 0 55 c0 66 -21 112 -57 126 -35 13 -80 2
-98 -24 -20 -29 -20 -129 1 -174 9 -19 62 -76 118 -126 212 -193 245 -242 254
-382 8 -140 -38 -245 -135 -302 -45 -26 -54 -28 -168 -28 -111 0 -124 2 -172
27 -97 51 -133 123 -133 263 l0 95 99 0 98 0 7 -71 c7 -73 14 -96 42 -123 20
-20 83 -21 111 -1 46 32 52 145 12 211 -11 17 -82 91 -159 164 -78 73 -152
151 -165 174 -45 77 -53 235 -16 330 50 129 214 190 392 145z m1590 -10 c29
-13 66 -40 90 -67 68 -78 70 -95 67 -549 -3 -395 -3 -398 -26 -443 -54 -103
-123 -142 -264 -148 -115 -5 -175 11 -237 64 -93 80 -104 148 -98 605 2 222 8
347 16 371 28 86 120 169 211 188 67 14 183 4 241 -21z m-4496 -12 c97 -49
135 -120 143 -264 l5 -93 -100 0 -100 0 -5 82 c-4 73 -8 84 -32 105 -51 43
-132 24 -153 -37 -19 -55 -18 -720 1 -765 17 -40 42 -55 90 -55 76 0 104 57
105 218 l1 72 -60 0 -60 0 0 95 0 96 153 -3 152 -3 0 -225 c0 -258 -7 -293
-75 -354 -63 -56 -102 -69 -215 -70 -84 0 -108 3 -151 22 -64 29 -106 72 -135
137 -21 48 -22 61 -23 450 -1 429 1 445 51 512 62 83 141 115 273 109 67 -2
96 -9 135 -29z m815 -67 l0 -90 -145 0 -145 0 0 -160 0 -160 125 0 125 0 0
-95 0 -95 -125 0 -125 0 0 -170 0 -170 155 0 156 0 -3 -87 -3 -88 -257 -3
-258 -2 0 605 0 605 250 0 250 0 0 -90z m770 0 l0 -90 -105 0 -105 0 0 -515 0
-515 -105 0 -105 0 0 515 0 515 -105 0 -105 0 0 90 0 90 315 0 315 0 0 -90z
m1870 -160 l0 -250 95 0 95 0 0 250 0 250 110 0 110 0 0 -605 0 -605 -110 0
-110 0 0 260 0 260 -95 0 -95 0 0 -260 0 -260 -110 0 -110 0 0 605 0 605 110
0 110 0 0 -250z m1515 228 c5 -21 16 -105 75 -548 13 -91 25 -172 28 -180 4
-14 23 101 88 558 l28 192 103 0 102 0 5 -32 c3 -18 26 -179 52 -358 25 -179
49 -338 53 -355 7 -28 8 -27 15 20 9 67 84 618 92 678 l6 47 99 0 c54 0 99 -4
99 -9 0 -10 -87 -576 -120 -776 -10 -66 -28 -178 -40 -250 -11 -71 -23 -140
-25 -153 -5 -22 -8 -23 -118 -20 l-112 3 -37 260 c-66 467 -70 493 -79 460 -4
-16 -26 -156 -48 -310 -23 -154 -46 -310 -52 -347 l-11 -68 -108 0 c-95 0
-109 2 -114 18 -3 9 -21 118 -41 242 -19 124 -60 383 -90 575 -30 193 -55 356
-55 363 0 9 27 12 100 12 95 0 100 -1 105 -22z m-2845 -130 c5 -13 30 -129 54
-258 25 -129 63 -329 86 -444 22 -116 40 -218 40 -228 0 -16 -10 -18 -85 -18
-60 0 -87 4 -90 13 -2 6 -9 45 -15 85 l-12 72 -93 0 -92 0 -13 -77 c-6 -42
-14 -83 -17 -90 -4 -9 -29 -13 -89 -13 -78 0 -84 1 -84 21 0 11 34 201 76 422
41 221 80 429 85 461 6 33 12 63 14 67 3 3 54 7 115 8 106 2 110 1 120 -21z"/>
<path d="M5360 6866 c0 -2 7 -7 16 -10 8 -3 12 -2 9 4 -6 10 -25 14 -25 6z"/>
<path d="M5460 6806 c0 -3 9 -10 20 -16 11 -6 20 -8 20 -6 0 3 -9 10 -20 16
-11 6 -20 8 -20 6z"/>
<path d="M5510 6776 c0 -2 8 -10 18 -17 15 -13 16 -12 3 4 -13 16 -21 21 -21
13z"/>
<path d="M5550 6745 c0 -7 61 -37 66 -33 2 3 -12 12 -31 21 -19 9 -35 15 -35
12z"/>
<path d="M6313 6473 c9 -2 23 -2 30 0 6 3 -1 5 -18 5 -16 0 -22 -2 -12 -5z"/>
<path d="M6403 6463 c9 -2 23 -2 30 0 6 3 -1 5 -18 5 -16 0 -22 -2 -12 -5z"/>
<path d="M6493 6453 c9 -2 23 -2 30 0 6 3 -1 5 -18 5 -16 0 -22 -2 -12 -5z"/>
<path d="M6735 6450 l-80 -6 77 -2 c43 -1 80 2 83 8 3 6 5 9 3 8 -2 -1 -39 -5
-83 -8z"/>
<path d="M6608 6443 c6 -2 18 -2 25 0 6 3 1 5 -13 5 -14 0 -19 -2 -12 -5z"/>
<path d="M6823 5805 c-38 -27 -43 -75 -43 -420 0 -345 5 -393 43 -420 33 -23
91 -19 124 9 l28 24 3 369 c2 202 0 378 -3 391 -14 57 -100 84 -152 47z"/>
<path d="M4507 5428 c-15 -106 -27 -196 -27 -200 0 -5 30 -8 66 -8 l66 0 -6
28 c-11 56 -45 259 -51 315 -4 31 -10 57 -14 57 -3 0 -19 -87 -34 -192z"/>
</g>
</svg>
